PathFileType	4	(X/Y/Z)	C:\Users\dbl\Desktop\LZH\BX\Trimmed_Trimmed_bx_y_10_901.trc
DataRate	CameraRate	NumFrames	NumMarkers	Units	OrigDataRate	OrigDataStartFrame	OrigNumFrames
50.00	50.00	       7	43	mm	50.00	31	       247
Frame#	Time	Top.Head			R.Acromium			L.Acromium			Sternum			R.ASIS			L.ASIS			V.Sacral			R.Thigh.Upper			R.Thigh.Front			R.Thigh.Rear			R.Knee.Lat			R.Knee.Med			R.Shank.Upper			R.Shank.Front			R.Shank.Rear			R.Ankle.Lat			R.Midfoot.Lat			R.Toe.Lat			R.Toe.Tip			R.Toe.Med			R.Ankle.Med			R.Midfoot.Sup			R.Heel			L.Thigh.Upper			L.Thigh.Front			L.Thigh.Rear			L.Knee.Lat			L.Knee.Med			L.Shank.Upper			L.Shank.Front			L.Shank.Rear			L.Ankle.Lat			L.Midfoot.Lat			L.Toe.Lat			L.Toe.Tip			L.Toe.Med			L.Ankle.Med			L.Midfoot.Sup			L.Heel			origin1 front left			origin2 front right			origin 3 back right			origin 4 back leftt			
		X1	Y1	Z1	X2	Y2	Z2	X3	Y3	Z3	X4	Y4	Z4	X5	Y5	Z5	X6	Y6	Z6	X7	Y7	Z7	X8	Y8	Z8	X9	Y9	Z9	X10	Y10	Z10	X11	Y11	Z11	X12	Y12	Z12	X13	Y13	Z13	X14	Y14	Z14	X15	Y15	Z15	X16	Y16	Z16	X17	Y17	Z17	X18	Y18	Z18	X19	Y19	Z19	X20	Y20	Z20	X21	Y21	Z21	X22	Y22	Z22	X23	Y23	Z23	X24	Y24	Z24	X25	Y25	Z25	X26	Y26	Z26	X27	Y27	Z27	X28	Y28	Z28	X29	Y29	Z29	X30	Y30	Z30	X31	Y31	Z31	X32	Y32	Z32	X33	Y33	Z33	X34	Y34	Z34	X35	Y35	Z35	X36	Y36	Z36	X37	Y37	Z37	X38	Y38	Z38	X39	Y39	Z39	X40	Y40	Z40	X41	Y41	Z41	X42	Y42	Z42	X43	Y43	Z43	

31	0.600	-677.20618	247.91858	1841.15491	-653.52588	56.54247	1528.08203	-668.89465	445.62244	1517.91382	-545.79254	262.60431	1405.29639	-535.46002	145.02516	1051.97937	-534.62085	388.41321	1059.67407	-728.40656	245.77951	1051.99695	-566.98895	94.47613	889.24377	-521.00427	156.22108	843.16162	-614.14453	89.65031	747.34406	-639.57489	124.19624	606.28204	-631.58850	234.08247	561.94568	-679.69904	122.74412	540.36884	-597.18884	175.73431	544.42255	-719.54639	126.09254	473.98996	-685.37488	146.86739	214.80157	-616.19897	78.52671	169.14182	-572.39685	50.44818	162.45656	-492.76743	90.17799	161.15927	-530.98346	143.76163	164.42484	-631.29486	220.19562	217.96107	-590.83771	191.22777	167.49359	-715.55798	216.05908	169.47163	-566.33130	434.49313	884.14832	-518.34521	372.71902	841.91321	-608.67896	435.17990	752.50128	-643.13531	411.86606	627.30103	-612.63739	307.63644	577.54095	-653.92548	408.15707	563.09052	-602.25616	366.48575	539.54901	-706.95654	413.55002	511.82001	-678.83582	412.86496	213.00427	-585.35504	467.54266	165.83310	-547.08948	479.06775	160.53781	-488.01151	429.81412	168.07686	-524.95300	387.33191	177.50594	-642.43085	325.21484	206.19310	-593.53748	346.14496	168.17896	-731.65442	342.14050	164.49689	-443.45581	449.22531	147.00870	-450.28964	75.23300	144.85904	-806.27258	82.69475	142.63022	-799.00287	457.84134	144.84204	
32	0.620	-677.37372	248.16719	1841.23059	-653.55719	56.60950	1528.13074	-668.92487	445.73492	1517.92261	-545.80725	262.60516	1405.29102	-535.45367	145.05106	1052.01453	-534.58270	388.43405	1059.71289	-728.40948	245.79150	1051.98535	-566.98846	94.48201	889.23608	-520.96082	156.24507	843.19916	-614.14099	89.65689	747.36536	-639.50348	124.20194	606.26910	-631.57300	234.09065	561.95502	-679.65289	122.74242	540.33057	-597.14270	175.79106	544.41937	-719.48828	126.16174	473.96298	-685.40802	146.87454	214.78564	-616.18268	78.51282	169.15997	-572.38525	50.44440	162.47194	-492.75748	90.20235	161.13303	-530.97803	143.75789	164.40303	-631.29828	220.19646	217.96971	-590.81903	191.19397	167.53275	-715.56989	215.98833	169.46060	-566.34711	434.48856	884.14716	-518.27698	372.69867	841.94513	-608.66699	435.16840	752.47589	-643.08380	411.85834	627.27441	-612.66156	307.56223	577.49664	-653.86176	408.22623	563.12122	-602.22607	366.48788	539.54022	-706.94543	413.54208	511.81021	-678.84393	412.87607	213.02629	-585.32635	467.62292	165.70154	-547.08057	479.05579	160.54601	-488.01099	429.82327	168.09305	-524.84296	387.45721	177.40817	-642.28784	325.06973	206.32436	-593.57037	346.11771	168.17842	-731.65247	342.12521	164.52158	-443.45313	449.22562	146.98708	-450.29163	75.20908	144.86049	-806.25836	82.67445	142.65605	-798.99768	457.91229	144.82570	
33	0.640	-677.45001	248.44264	1841.27563	-653.54749	56.64075	1528.20630	-668.93713	445.82745	1517.94324	-545.81921	262.60977	1405.28943	-535.47876	145.07402	1052.02441	-534.54169	388.46445	1059.75342	-728.42169	245.79431	1051.98511	-566.97638	94.47512	889.22607	-520.90637	156.28136	843.23297	-614.13654	89.65861	747.38904	-639.41534	124.19160	606.25836	-631.57489	234.09103	561.95886	-679.60046	122.75005	540.27686	-597.09552	175.82404	544.42792	-719.42975	126.21829	473.93619	-685.42859	146.85962	214.78316	-616.18134	78.50568	169.17497	-572.37787	50.41268	162.47400	-492.73694	90.21504	161.13313	-530.96973	143.76222	164.35236	-631.29974	220.20303	217.96078	-590.83789	191.20088	167.49863	-715.61530	215.92429	169.45183	-566.33044	434.45557	884.14893	-518.23383	372.68567	841.96613	-608.66266	435.16931	752.47626	-643.02533	411.83862	627.24951	-612.64575	307.54333	577.49170	-653.77484	408.30386	563.15015	-602.15747	366.47275	539.50574	-706.92566	413.53439	511.79660	-678.84851	412.88980	213.05830	-585.34723	467.61072	165.78468	-547.05963	479.05695	160.53931	-487.99255	429.83643	168.10933	-524.77222	387.55734	177.39853	-642.15881	324.93826	206.42137	-593.56995	346.11621	168.13521	-731.64728	342.13812	164.53838	-443.45062	449.20255	146.95868	-450.28418	75.19922	144.86357	-806.25677	82.64979	142.66870	-799.02979	457.85785	144.89833	
34	0.660	-677.42035	248.70679	1841.28931	-653.50464	56.67065	1528.29163	-668.91425	445.90540	1517.96716	-545.79047	262.61807	1405.31079	-535.51697	145.08389	1052.02148	-534.51727	388.49854	1059.78125	-728.43304	245.79356	1052.00037	-566.95929	94.46278	889.22455	-520.84814	156.32120	843.26721	-614.10083	89.64075	747.44110	-639.29486	124.16098	606.24530	-631.58472	234.08984	561.96143	-679.53864	122.76404	540.20984	-597.04541	175.84213	544.42352	-719.37451	126.24579	473.91528	-685.43103	146.84193	214.78079	-616.17883	78.52469	169.19293	-572.38647	50.37435	162.47276	-492.71677	90.22091	161.16267	-530.95850	143.77756	164.28844	-631.29730	220.19193	217.94177	-590.88434	191.24332	167.40428	-715.67328	215.88959	169.42805	-566.27991	434.40686	884.15118	-518.21814	372.70209	841.98114	-608.65057	435.20630	752.52313	-642.97021	411.82425	627.24719	-612.54138	307.63687	577.55243	-653.67944	408.36826	563.17157	-602.04742	366.43677	539.45795	-706.87543	413.54028	511.78061	-678.83618	412.89117	213.07036	-585.39319	467.52640	166.02280	-547.04358	479.07349	160.53220	-487.97009	429.84866	168.11673	-524.75751	387.60727	177.41713	-642.10425	324.87439	206.46033	-593.54382	346.13544	168.08104	-731.64343	342.17499	164.54276	-443.44388	449.16956	146.94676	-450.27051	75.19685	144.86481	-806.25970	82.64180	142.65770	-799.07001	457.77084	144.97192	
35	0.680	-677.31152	248.92302	1841.28772	-653.43127	56.72485	1528.37524	-668.86292	445.99173	1517.98022	-545.70032	262.63544	1405.36279	-535.54236	145.08540	1052.01379	-534.50049	388.52194	1059.79675	-728.43658	245.79559	1052.02332	-566.94067	94.45284	889.23877	-520.79352	156.35078	843.30402	-614.03021	89.59612	747.53729	-639.15778	124.11004	606.23694	-631.58936	234.09334	561.96185	-679.46729	122.77902	540.14856	-596.98602	175.85878	544.37421	-719.32471	126.25171	473.88889	-685.42114	146.84172	214.77147	-616.16919	78.57520	169.20268	-572.40955	50.35365	162.48145	-492.70441	90.21822	161.20946	-530.94727	143.79912	164.24005	-631.29889	220.15607	217.91980	-590.90729	191.26553	167.35545	-715.70575	215.88382	169.40140	-566.22424	434.37726	884.14905	-518.20453	372.75259	842.01245	-608.62061	435.28479	752.61621	-642.89948	411.83734	627.28265	-612.33099	307.83759	577.67664	-653.59033	408.40332	563.18903	-601.93134	366.39963	539.41022	-706.78638	413.56589	511.76138	-678.81580	412.89496	213.06573	-585.42566	467.41943	166.26616	-547.03876	479.10013	160.53581	-487.95715	429.85272	168.10814	-524.77893	387.60562	177.43573	-642.11768	324.86603	206.45946	-593.51703	346.15790	168.02614	-731.64465	342.21606	164.53682	-443.43430	449.13513	146.97420	-450.26041	75.19865	144.86549	-806.25977	82.64944	142.63489	-799.09692	457.70282	145.02739	
36	0.700	-677.15778	249.08170	1841.29236	-653.32861	56.80727	1528.45654	-668.80298	446.09790	1517.98120	-545.56696	262.67032	1405.42908	-535.55225	145.09825	1051.99622	-534.47015	388.52060	1059.80640	-728.42682	245.80434	1052.02344	-566.91693	94.44867	889.27307	-520.74927	156.36290	843.33984	-613.94684	89.52727	747.65308	-639.03760	124.05094	606.24969	-631.56909	234.10590	561.95215	-679.38721	122.78737	540.11761	-596.91376	175.88002	544.28198	-719.27594	126.24579	473.84821	-685.39545	146.86386	214.76202	-616.16913	78.63582	169.19476	-572.42548	50.36806	162.50551	-492.70166	90.19675	161.26364	-530.94055	143.81601	164.23106	-631.30737	220.11601	217.90096	-590.87238	191.22769	167.42671	-715.69470	215.89117	169.40512	-566.18164	434.38113	884.13678	-518.15887	372.81509	842.06250	-608.56628	435.38416	752.72827	-642.78851	411.88422	627.33752	-612.05750	308.05859	577.80975	-653.49133	408.40356	563.19086	-601.83716	366.38599	539.37567	-706.66547	413.60559	511.74530	-678.79498	412.92053	213.05879	-585.43268	467.32410	166.41937	-547.03656	479.12631	160.54698	-487.95926	429.84625	168.08720	-524.80133	387.56638	177.44044	-642.16949	324.88336	206.44518	-593.51569	346.16360	167.97392	-731.65771	342.23721	164.52470	-443.42670	449.09784	147.02670	-450.25732	75.20683	144.86758	-806.26569	82.65983	142.60806	-799.11029	457.63400	145.08995	
37	0.720	-676.97656	249.19456	1841.31287	-653.19934	56.90894	1528.53650	-668.74359	446.21326	1517.98157	-545.42023	262.72836	1405.48315	-535.55524	145.13792	1051.95862	-534.42413	388.49438	1059.80933	-728.40198	245.82753	1051.97949	-566.88739	94.45129	889.31989	-520.70715	156.35387	843.36426	-613.87390	89.44650	747.74805	-638.95129	124.01060	606.28906	-631.50232	234.12434	561.92072	-679.29694	122.78243	540.12909	-596.83154	175.90776	544.19098	-719.20929	126.22680	473.80331	-685.35358	146.88548	214.76324	-616.18958	78.67630	169.18132	-572.40979	50.41662	162.53729	-492.70215	90.15745	161.31808	-530.94232	143.81839	164.25919	-631.30627	220.11630	217.89386	-590.78955	191.13632	167.59291	-715.65344	215.89554	169.44797	-566.14178	434.39819	884.11322	-518.06018	372.86996	842.10968	-608.47198	435.45874	752.82306	-642.63654	411.95645	627.37592	-611.79474	308.21115	577.87714	-653.34430	408.35590	563.12946	-601.76331	366.40286	539.35858	-706.52069	413.64868	511.73920	-678.78656	412.96838	213.06622	-585.42725	467.24960	166.48599	-547.02740	479.14291	160.56042	-487.97342	429.83426	168.07121	-524.80542	387.50934	177.42902	-642.22229	324.90414	206.43799	-593.54456	346.14673	167.93597	-731.68420	342.22931	164.51736	-443.42258	449.05942	147.06932	-450.25754	75.21967	144.86725	-806.28760	82.66577	142.56889	-799.11157	457.56131	145.14590	
